<?xml version="1.0" encoding="UTF-8" standalone="no"?>
<!-- Created with Inkscape (http://www.inkscape.org/) -->
<svg
   xmlns:dc="http://purl.org/dc/elements/1.1/"
   xmlns:cc="http://creativecommons.org/ns#"
   xmlns:rdf="http://www.w3.org/1999/02/22-rdf-syntax-ns#"
   xmlns:svg="http://www.w3.org/2000/svg"
   xmlns="http://www.w3.org/2000/svg"
   xmlns:sodipodi="http://sodipodi.sourceforge.net/DTD/sodipodi-0.dtd"
   xmlns:inkscape="http://www.inkscape.org/namespaces/inkscape"
   width="765"
   height="990"
   id="svg3610"
   sodipodi:version="0.32"
   inkscape:version="0.46+devel"
   version="1.0"
   sodipodi:docname="person-two.svg"
   inkscape:output_extension="org.inkscape.output.svg.inkscape">
  <title
     id="title3635">Person Outline</title>
  <defs
     id="defs3612">
    <inkscape:perspective
       sodipodi:type="inkscape:persp3d"
       inkscape:vp_x="0 : 526.18109 : 1"
       inkscape:vp_y="0 : 1000 : 0"
       inkscape:vp_z="744.09448 : 526.18109 : 1"
       inkscape:persp3d-origin="372.04724 : 350.78739 : 1"
       id="perspective3618" />
    <inkscape:perspective
       id="perspective3602"
       inkscape:persp3d-origin="0.5 : 0.33333333 : 1"
       inkscape:vp_z="1 : 0.5 : 1"
       inkscape:vp_y="0 : 1000 : 0"
       inkscape:vp_x="0 : 0.5 : 1"
       sodipodi:type="inkscape:persp3d" />
  </defs>
  <sodipodi:namedview
     id="base"
     pagecolor="#ffffff"
     bordercolor="#666666"
     borderopacity="1.0"
     inkscape:pageopacity="0.0"
     inkscape:pageshadow="2"
     inkscape:zoom="0.35"
     inkscape:cx="743.57143"
     inkscape:cy="508.57143"
     inkscape:document-units="px"
     inkscape:current-layer="layer1"
     showgrid="false"
     showguides="true"
     inkscape:guide-bbox="true"
     inkscape:window-width="778"
     inkscape:window-height="716"
     inkscape:window-x="0"
     inkscape:window-y="18" />
  <metadata
     id="metadata3615">
    <rdf:RDF>
      <cc:Work
         rdf:about="">
        <dc:format>image/svg+xml</dc:format>
        <dc:type
           rdf:resource="http://purl.org/dc/dcmitype/StillImage" />
        <dc:title>Person Outline</dc:title>
        <dc:contributor>
          <cc:Agent>
            <dc:title>Fabricatorz, Lu Fang, Jon Phillips</dc:title>
          </cc:Agent>
        </dc:contributor>
        <cc:license
           rdf:resource="http://creativecommons.org/licenses/publicdomain/" />
      </cc:Work>
      <cc:License
         rdf:about="http://creativecommons.org/licenses/publicdomain/">
        <cc:permits
           rdf:resource="http://creativecommons.org/ns#Reproduction" />
        <cc:permits
           rdf:resource="http://creativecommons.org/ns#Distribution" />
        <cc:permits
           rdf:resource="http://creativecommons.org/ns#DerivativeWorks" />
      </cc:License>
    </rdf:RDF>
  </metadata>
  <g
     inkscape:label="Layer 1"
     inkscape:groupmode="layer"
     id="layer1">
    <path
       d="m 506.95784,527.82604 c 4.87307,-3.24529 44.36173,-53.00928 44.36173,-53.00928 0,0 2.157,5.41233 1.0786,-17.30534 -1.0786,-22.72252 4.868,-138.47735 -2.71129,-157.40528 -7.56403,-18.93298 -45.43011,-95.19904 -46.51353,-98.98869 -1.07857,-3.78461 -14.06495,-21.63417 -14.06495,-21.63417 0,0 -13.52063,-6.49072 -13.52063,-6.49072 0,0 -13.52073,-6.4907 -13.52073,-6.4907 0,0 0,-4.87308 0,-8.1084 0,-3.25035 -4.32885,-5.95153 -8.65768,-11.90307 -4.32377,-5.94638 -11.35871,-22.71748 -12.98142,-27.05134 -1.62273,-4.32882 -3.77958,-8.10849 -5.9465,-9.19191 -2.16694,-1.08308 -9.1918,0 -9.1918,0 0,0 -4.32894,2.16693 -4.32894,2.16693 0,0 -2.16696,-2.16693 -2.16696,-2.16693 0,0 8.11355,-6.49072 8.11355,-10.275329 0,-3.784604 3.24531,-9.1919 3.24531,-9.1919 0,0 -1.07859,-7.579181 -1.07859,-7.579181 0,0 -1.62271,-2.701094 -1.62271,-2.701094 0,0 -2.71126,-2.166922 -2.71126,-2.166922 0,0 4.87316,-5.407309 4.87316,-12.44226 0,-7.024854 -0.5393,-23.256865 -0.5393,-23.256865 0,0 -5.95154,-17.305129 -10.28048,-20.555587 -4.32871,-3.240361 -1.62259,-5.412344 -15.68757,-9.191912 -14.05991,-3.7846043 -20.01134,-3.7846043 -29.20829,0 -9.19696,3.779568 -19.47216,12.981454 -19.47216,12.981454 0,0 -5.40731,1.622704 -7.03002,7.574231 -1.62764,5.946503 -5.41224,21.09488 -5.41224,23.800996 0,2.701192 2.70107,7.030014 2.70107,7.030014 0,0 -3.77956,1.617669 -3.77956,1.617669 0,0 -4.32378,3.250347 -4.86801,7.034951 -0.54378,3.789652 0.54377,12.98154 0.54377,12.98154 0,0 -0.54377,7.034976 3.7846,8.113438 4.31875,1.088695 4.31875,-0.539293 4.31875,-0.539293 0,0 1.08309,10.27545 1.08309,10.27545 0,0 0.54378,15.14837 0.54378,15.14837 0,0 2.16692,-0.53818 -7.57415,-1.07859 -9.73098,-0.5494 -18.93298,-1.62777 -18.93298,-1.62777 0,0 -7.02487,2.16696 -7.02487,2.16696 0,0 -4.32882,7.56918 -4.32882,7.56918 0,0 2.70107,-2.70612 -2.16199,9.73604 -4.87296,12.43732 -6.49577,15.14344 -8.65756,18.92804 -2.16692,3.79456 -4.86308,7.57917 -1.62271,12.99154 3.24027,5.40216 -1.61764,7.56414 -1.61764,7.56414 0,0 -11.3638,2.16693 -21.64427,10.28039 -10.27017,8.11834 -15.14333,18.92781 -21.63405,32.99288 -6.4858,14.06487 -30.83101,135.22196 -33.53208,168.21978 -2.7113,32.99796 -5.41729,54.63201 2.70107,82.22276 8.11343,27.5856 11.90305,32.44857 11.90305,32.44857 0,0 13.52076,8.65765 13.52076,8.65765 0,0 5.4072,5.40225 5.4072,5.40225 0,0 3.78963,8.6627 3.78963,8.6627 0,0 -2.70622,4.32884 3.7846,0 6.49072,-4.33387 9.19685,-7.04008 9.19685,-7.04008 0,0 3.24541,1.08868 3.24541,1.08868 0,0 2.7011,5.95153 2.7011,5.95153 0,0 5.41233,2.70611 5.41233,2.70611 0,0 1.08309,5.40731 1.08309,5.40731 0,0 1.6227,12.44226 0,23.80112 -1.62788,11.35873 -3.78967,28.12477 -4.32884,35.69889 -0.54489,7.57426 -2.70624,43.81258 2.70096,66.53004 5.40731,22.71758 6.49085,36.24338 7.03013,51.38682 0.54377,15.14838 1.6226,24.87936 1.6226,24.87936 0,0 1.08869,19.47226 -0.53369,45.43514 -1.62775,25.96301 -4.32894,38.40022 0,44.89588 4.32368,6.49082 7.02487,13.52073 7.02487,13.52073 0,0 -2.70119,-0.54377 -4.86297,3.78461 -2.1619,4.32882 -4.87318,7.57423 -4.87318,14.07001 0,6.49072 5.95658,24.34017 5.95658,24.34017 0,0 -5.41234,17.84453 -5.41234,17.84453 0,0 0,10.81955 0,10.81955 0,0 3.24541,5.95153 3.24541,5.95153 0,0 -0.54378,3.25046 -5.94651,15.14838 -5.41233,11.89803 -9.20198,12.97639 -8.11844,21.09488 1.08867,8.11352 -2.7011,14.59909 3.78962,18.93306 6.48568,4.31863 28.12477,10.27019 28.12477,10.27019 0,0 2.70624,-1.07298 7.56921,-3.24532 4.87316,-2.1619 16.22685,-5.95153 16.22685,-13.52073 0,-7.56921 0,-20.55569 2.16684,-21.09476 2.16704,-0.53929 3.7846,-1.08307 3.7846,-1.08307 0,0 10.27543,-9.19179 10.27543,-9.19179 0,0 -1.08307,-8.11334 -1.08307,-11.90296 0,-3.77956 3.79456,-8.65778 3.79456,-8.65778 0,0 6.49074,-15.14334 6.49074,-15.14334 0,0 2.15696,-4.86801 2.15696,-4.86801 0,0 2.70612,-5.95155 4.32882,-10.81452 1.62271,-4.86799 2.70612,-11.35883 2.70612,-11.35883 0,0 -2.70612,-1.62764 -2.70612,-1.62764 0,0 2.70612,-4.32895 2.70612,-4.32895 0,0 -3.78459,-13.52578 -3.78459,-13.52578 0,0 -13.52568,-63.27441 -9.19695,-88.15399 4.27355,-24.56699 8.65272,-47.2543 15.68767,-66.54001 3.51752,-9.65553 1.6227,-21.63416 1.6227,-21.63416 0,0 9.19684,-43.27327 9.19684,-43.27327 0,0 -2.70612,-21.09475 -2.70612,-21.09475 0,0 4.86814,0 4.86814,0 0,0 -0.5438,15.6926 0.53928,19.47215 1.08307,3.78954 12.44226,57.33813 12.44226,57.33813 0,0 1.08868,9.1919 1.08868,9.1919 0,0 6.48568,83.84535 3.24027,91.41959 -3.24027,7.56909 -2.71106,16.22674 -4.32871,25.41362 -1.61767,9.20693 -3.2405,27.05144 0,33.00287 3.24026,5.94648 11.35368,9.73614 11.35368,9.73614 0,0 3.2555,5.4073 -0.53368,9.7311 -3.78966,4.32883 -7.5793,12.44728 -7.5793,12.44728 0,0 2.71128,1.62262 4.87318,2.70119 2.16177,1.08309 5.41223,2.70603 5.41223,2.70603 0,0 1.08307,9.73613 1.08307,9.73613 0,0 0.5337,9.73613 2.69604,14.06484 2.16693,4.32895 4.32883,10.2805 4.32883,10.2805 0,0 0,18.37865 2.16189,20.54558 2.16693,2.16683 9.73602,8.65768 9.73602,8.65768 0,0 8.11848,9.19179 8.11848,9.19179 0,0 -2.16695,3.25034 1.08306,9.74119 3.24039,6.48567 5.94651,17.31542 18.38371,18.93298 12.44228,1.61764 35.15984,0.53479 35.15984,0.53479 0,0 4.87319,-11.89803 4.87319,-11.89803 0,0 1.07857,-9.19684 -1.08309,-15.14838 -2.1619,-5.94144 -18.39379,-36.77749 -18.39379,-36.77749 0,0 3.78964,-10.27532 3.78964,-10.27532 0,0 1.62271,-16.22674 1.62271,-16.22674 0,0 -3.78964,-17.31039 -3.78964,-17.31039 0,0 9.19685,-5.40226 9.19685,-10.28036 0,-4.86802 -3.78966,-19.46711 -3.78966,-19.46711 0,0 -1.07298,-1.62273 3.2554,-8.11849 4.31886,-6.48567 6.48061,-28.66911 1.6227,-53.00438 -4.8781,-24.34521 -10.8246,-54.09281 -10.8246,-54.09281 0,0 -3.2453,-15.68251 -3.2453,-15.68251 0,0 1.62764,-23.26181 2.1619,-37.86596 0.54938,-14.60918 4.868,-73.02075 4.868,-73.02075 0,0 -3.7846,-22.71758 -3.7846,-22.71758 0,0 1.08308,-21.0999 -1.08307,-34.62055 -2.1619,-13.52074 3.24541,-21.08992 3.24541,-21.08992 0,0 11.35874,9.73108 11.35874,9.73108 0,0 10.27534,-5.40718 10.27534,-5.40718"
       style="fill:#2e3436;fill-opacity:1;fill-rule:evenodd;stroke:none"
       id="path3433" />
  </g>
</svg>
